<?xml version="1.0" encoding="UTF-8"?>
<!--Generator: Apple Native CoreSVG 341-->
<!DOCTYPE svg
PUBLIC "-//W3C//DTD SVG 1.1//EN"
       "http://www.w3.org/Graphics/SVG/1.1/DTD/svg11.dtd">
<svg version="1.1" xmlns="http://www.w3.org/2000/svg" xmlns:xlink="http://www.w3.org/1999/xlink" viewBox="0 0 3300 2200">
 <!--glyph: "1019A6", point size: 100.0, font version: "21.0d4e1", template writer version: "138.0.0"-->
 <style>.SFSymbolsPreviewWireframe {fill:none;opacity:1.0;stroke:black;stroke-width:0.5}
</style>
 <g id="Notes">
  <rect height="2200" id="artboard" style="fill:white;opacity:1" width="3300" x="0" y="0"/>
  <line style="fill:none;stroke:black;opacity:1;stroke-width:0.5;" x1="263" x2="3036" y1="292" y2="292"/>
  <text style="stroke:none;fill:black;font-family:sans-serif;font-size:13;font-weight:bold;" transform="matrix(1 0 0 1 263 322)">Weight/Scale Variations</text>
  <text style="stroke:none;fill:black;font-family:sans-serif;font-size:13;text-anchor:middle;" transform="matrix(1 0 0 1 559.711 322)">Ultralight</text>
  <text style="stroke:none;fill:black;font-family:sans-serif;font-size:13;text-anchor:middle;" transform="matrix(1 0 0 1 856.422 322)">Thin</text>
  <text style="stroke:none;fill:black;font-family:sans-serif;font-size:13;text-anchor:middle;" transform="matrix(1 0 0 1 1153.13 322)">Light</text>
  <text style="stroke:none;fill:black;font-family:sans-serif;font-size:13;text-anchor:middle;" transform="matrix(1 0 0 1 1449.84 322)">Regular</text>
  <text style="stroke:none;fill:black;font-family:sans-serif;font-size:13;text-anchor:middle;" transform="matrix(1 0 0 1 1746.56 322)">Medium</text>
  <text style="stroke:none;fill:black;font-family:sans-serif;font-size:13;text-anchor:middle;" transform="matrix(1 0 0 1 2043.27 322)">Semibold</text>
  <text style="stroke:none;fill:black;font-family:sans-serif;font-size:13;text-anchor:middle;" transform="matrix(1 0 0 1 2339.98 322)">Bold</text>
  <text style="stroke:none;fill:black;font-family:sans-serif;font-size:13;text-anchor:middle;" transform="matrix(1 0 0 1 2636.69 322)">Heavy</text>
  <text style="stroke:none;fill:black;font-family:sans-serif;font-size:13;text-anchor:middle;" transform="matrix(1 0 0 1 2933.4 322)">Black</text>
  <line style="fill:none;stroke:black;opacity:1;stroke-width:0.5;" x1="263" x2="3036" y1="1903" y2="1903"/>
  <g transform="matrix(0.2 0 0 0.2 263 1933)">
   <path d="m46.2402 4.15039c21.7773 0 39.4531-17.627 39.4531-39.4043s-17.6758-39.4043-39.4531-39.4043c-21.7285 0-39.4043 17.627-39.4043 39.4043s17.6758 39.4043 39.4043 39.4043Zm0-7.42188c-17.6758 0-31.9336-14.3066-31.9336-31.9824s14.2578-31.9824 31.9336-31.9824 31.9824 14.3066 31.9824 31.9824-14.3066 31.9824-31.9824 31.9824Zm3.61328-17.7734v-28.4668c0-2.24609-1.46484-3.75977-3.71094-3.75977-2.14844 0-3.61328 1.51367-3.61328 3.75977v28.4668c0 2.19727 1.46484 3.71094 3.61328 3.71094 2.24609 0 3.71094-1.51367 3.71094-3.71094Zm-17.8223-10.5957h28.418c2.19727 0 3.71094-1.46484 3.71094-3.61328 0-2.19727-1.51367-3.71094-3.71094-3.71094h-28.418c-2.24609 0-3.75977 1.51367-3.75977 3.71094 0 2.14844 1.51367 3.61328 3.75977 3.61328Z"/>
  </g>
  <g transform="matrix(0.2 0 0 0.2 281.506 1933)">
   <path d="m58.5449 14.5508c27.4902 0 49.8047-22.3145 49.8047-49.8047s-22.3145-49.8047-49.8047-49.8047-49.8047 22.3145-49.8047 49.8047 22.3145 49.8047 49.8047 49.8047Zm0-8.30078c-22.9492 0-41.5039-18.5547-41.5039-41.5039s18.5547-41.5039 41.5039-41.5039 41.5039 18.5547 41.5039 41.5039-18.5547 41.5039-41.5039 41.5039Zm4.05273-23.0957v-36.9141c0-2.49023-1.70898-4.19922-4.15039-4.19922-2.39258 0-4.05273 1.70898-4.05273 4.19922v36.9141c0 2.44141 1.66016 4.15039 4.05273 4.15039 2.44141 0 4.15039-1.66016 4.15039-4.15039Zm-22.5586-14.4043h36.9629c2.44141 0 4.15039-1.61133 4.15039-4.00391 0-2.44141-1.70898-4.15039-4.15039-4.15039h-36.9629c-2.49023 0-4.15039 1.70898-4.15039 4.15039 0 2.39258 1.66016 4.00391 4.15039 4.00391Z"/>
  </g>
  <g transform="matrix(0.2 0 0 0.2 304.924 1933)">
   <path d="m74.8535 28.3203c35.1074 0 63.623-28.4668 63.623-63.5742s-28.5156-63.623-63.623-63.623-63.5742 28.5156-63.5742 63.623 28.4668 63.5742 63.5742 63.5742Zm0-9.08203c-30.127 0-54.4922-24.3652-54.4922-54.4922s24.3652-54.4922 54.4922-54.4922 54.4922 24.3652 54.4922 54.4922-24.3652 54.4922-54.4922 54.4922Zm4.44336-30.3223v-48.4863c0-2.73438-1.85547-4.63867-4.54102-4.63867-2.58789 0-4.44336 1.9043-4.44336 4.63867v48.4863c0 2.68555 1.85547 4.58984 4.44336 4.58984 2.68555 0 4.54102-1.85547 4.54102-4.58984Zm-28.7109-19.7754h48.4863c2.68555 0 4.58984-1.80664 4.58984-4.39453 0-2.73438-1.85547-4.58984-4.58984-4.58984h-48.4863c-2.73438 0-4.58984 1.85547-4.58984 4.58984 0 2.58789 1.85547 4.39453 4.58984 4.39453Z"/>
  </g>
  <text style="stroke:none;fill:black;font-family:sans-serif;font-size:13;font-weight:bold;" transform="matrix(1 0 0 1 263 1953)">Design Variations</text>
  <text style="stroke:none;fill:black;font-family:sans-serif;font-size:13;" transform="matrix(1 0 0 1 263 1971)">Symbols are supported in up to nine weights and three scales.</text>
  <text style="stroke:none;fill:black;font-family:sans-serif;font-size:13;" transform="matrix(1 0 0 1 263 1989)">For optimal layout with text and other symbols, vertically align</text>
  <text style="stroke:none;fill:black;font-family:sans-serif;font-size:13;" transform="matrix(1 0 0 1 263 2007)">symbols with the adjacent text.</text>
  <line style="fill:none;stroke:#00AEEF;stroke-width:0.5;opacity:1.0;" x1="776" x2="776" y1="1919" y2="1933"/>
  <g transform="matrix(0.2 0 0 0.2 776 1933)">
   <path d="m16.5527 0.78125c2.58789 0 3.85742-0.976562 4.78516-3.71094l20.5566-57.5195h0.244141l20.6055 57.5195c0.927734 2.73438 2.19727 3.71094 4.73633 3.71094 2.58789 0 4.24805-1.5625 4.24805-4.00391 0-0.830078-0.146484-1.61133-0.537109-2.63672l-22.9004-60.9863c-1.12305-2.97852-3.125-4.49219-6.25-4.49219-3.02734 0-5.07812 1.46484-6.15234 4.44336l-22.9004 61.084c-0.390625 1.02539-0.537109 1.80664-0.537109 2.63672 0 2.44141 1.5625 3.95508 4.10156 3.95508Zm10.2051-20.9473h30.6641c2.00195 0 3.66211-1.66016 3.66211-3.66211 0-2.05078-1.66016-3.66211-3.66211-3.66211h-30.6641c-2.00195 0-3.66211 1.61133-3.66211 3.66211 0 2.00195 1.66016 3.66211 3.66211 3.66211Z"/>
  </g>
  <line style="fill:none;stroke:#00AEEF;stroke-width:0.5;opacity:1.0;" x1="792.836" x2="792.836" y1="1919" y2="1933"/>
  <text style="stroke:none;fill:black;font-family:sans-serif;font-size:13;font-weight:bold;" transform="matrix(1 0 0 1 776 1953)">Margins</text>
  <text style="stroke:none;fill:black;font-family:sans-serif;font-size:13;" transform="matrix(1 0 0 1 776 1971)">Leading and trailing margins on the left and right side of each symbol</text>
  <text style="stroke:none;fill:black;font-family:sans-serif;font-size:13;" transform="matrix(1 0 0 1 776 1989)">can be adjusted by modifying the x-location of the margin guidelines.</text>
  <text style="stroke:none;fill:black;font-family:sans-serif;font-size:13;" transform="matrix(1 0 0 1 776 2007)">Modifications are automatically applied proportionally to all</text>
  <text style="stroke:none;fill:black;font-family:sans-serif;font-size:13;" transform="matrix(1 0 0 1 776 2025)">scales and weights.</text>
  <g transform="matrix(0.2 0 0 0.2 1289 1933)">
   <path d="m14.209 13.1348 7.86133 7.86133c4.29688 4.39453 9.32617 4.10156 13.8672-1.02539l60.6934-68.2129-4.88281-4.88281-60.2539 67.6758c-1.80664 1.95312-3.4668 2.44141-5.81055 0.0976562l-5.17578-5.12695c-2.29492-2.29492-1.80664-3.95508 0.195312-5.81055l67.4805-62.1582-4.88281-4.83398-68.0664 62.5977c-4.98047 4.58984-5.32227 9.47266-1.02539 13.8184Zm44.873-97.4609c-2.05078 2.00195-2.24609 4.88281-1.07422 6.78711 1.12305 1.80664 3.4668 3.02734 6.5918 2.24609 5.85938-1.66016 12.5977-2.39258 18.8965 0.927734l-2.68555 7.12891c-1.61133 4.00391-0.732422 6.88477 1.70898 9.42383l10.2539 10.3027c2.34375 2.39258 4.54102 2.44141 7.08008 1.95312l4.44336-0.732422 2.58789 2.53906-0.195312 2.24609c-0.0976562 2.29492 0.537109 4.29688 2.7832 6.49414l3.36914 3.32031c2.29492 2.29492 5.51758 2.49023 7.8125 0.195312l12.9883-13.0371c2.29492-2.34375 2.14844-5.37109-0.195312-7.66602l-3.41797-3.41797c-2.19727-2.19727-4.05273-3.02734-6.34766-2.88086l-2.34375 0.244141-2.44141-2.44141 1.02539-4.6875c0.634766-2.73438-0.244141-4.98047-2.88086-7.61719l-11.2793-11.1816c-12.9395-12.8418-35.5957-11.0352-46.6797-0.146484Zm7.08008 2.05078c8.78906-6.39648 25.9766-5.66406 33.6914 1.95312l12.3047 12.207c1.02539 1.02539 1.2207 1.80664 0.927734 3.32031l-1.46484 6.64062 6.73828 6.68945 4.39453-0.244141c1.12305-0.0488281 1.51367 0.0488281 2.34375 0.878906l2.53906 2.49023-10.8398 10.8398-2.49023-2.49023c-0.830078-0.878906-0.976562-1.2207-0.927734-2.39258l0.292969-4.3457-6.68945-6.73828-6.83594 1.17188c-1.41602 0.292969-2.05078 0.195312-3.17383-0.878906l-8.93555-8.88672c-1.07422-1.02539-1.17188-1.70898-0.488281-3.36914l4.58984-11.4746c-6.10352-6.34766-17.041-7.51953-25.5859-4.58984-0.683594 0.244141-0.927734-0.390625-0.390625-0.78125Z"/>
  </g>
  <text style="stroke:none;fill:black;font-family:sans-serif;font-size:13;font-weight:bold;" transform="matrix(1 0 0 1 1289 1953)">Exporting</text>
  <text style="stroke:none;fill:black;font-family:sans-serif;font-size:13;" transform="matrix(1 0 0 1 1289 1971)">Symbols should be outlined when exporting to ensure the</text>
  <text style="stroke:none;fill:black;font-family:sans-serif;font-size:13;" transform="matrix(1 0 0 1 1289 1989)">design is preserved when submitting to Xcode.</text>
  <text id="template-version" style="stroke:none;fill:black;font-family:sans-serif;font-size:13;text-anchor:end;" transform="matrix(1 0 0 1 3036 1933)">Template v.7.0</text>
  <text style="stroke:none;fill:black;font-family:sans-serif;font-size:13;text-anchor:end;" transform="matrix(1 0 0 1 3036 1951)">Requires Xcode 17 or greater</text>
  <text id="descriptive-name" style="stroke:none;fill:black;font-family:sans-serif;font-size:13;text-anchor:end;" transform="matrix(1 0 0 1 3036 1969)">Generated from rectangle.and.pencil.and.ellipsis</text>
  <text style="stroke:none;fill:black;font-family:sans-serif;font-size:13;text-anchor:end;" transform="matrix(1 0 0 1 3036 1987)">Typeset at 100.0 points</text>
  <text style="stroke:none;fill:black;font-family:sans-serif;font-size:13;" transform="matrix(1 0 0 1 263 726)">Small</text>
  <text style="stroke:none;fill:black;font-family:sans-serif;font-size:13;" transform="matrix(1 0 0 1 263 1156)">Medium</text>
  <text style="stroke:none;fill:black;font-family:sans-serif;font-size:13;" transform="matrix(1 0 0 1 263 1586)">Large</text>
 </g>
 <g id="Guides">
  <g id="H-reference" style="fill:#27AAE1;stroke:none;" transform="matrix(1 0 0 1 339 696)">
   <path d="M0.993654 0L3.63775 0L29.3281-67.1323L30.0303-67.1323L30.0303-70.459L28.1226-70.459ZM11.6885-24.4799L46.9815-24.4799L46.2315-26.7285L12.4385-26.7285ZM55.1196 0L57.7637 0L30.6382-70.459L29.4326-70.459L29.4326-67.1323Z"/>
  </g>
  <line id="Baseline-S" style="fill:none;stroke:#27AAE1;opacity:1;stroke-width:0.5;" x1="263" x2="3036" y1="696" y2="696"/>
  <line id="Capline-S" style="fill:none;stroke:#27AAE1;opacity:1;stroke-width:0.5;" x1="263" x2="3036" y1="625.541" y2="625.541"/>
  <g id="H-reference" style="fill:#27AAE1;stroke:none;" transform="matrix(1 0 0 1 339 1126)">
   <path d="M0.993654 0L3.63775 0L29.3281-67.1323L30.0303-67.1323L30.0303-70.459L28.1226-70.459ZM11.6885-24.4799L46.9815-24.4799L46.2315-26.7285L12.4385-26.7285ZM55.1196 0L57.7637 0L30.6382-70.459L29.4326-70.459L29.4326-67.1323Z"/>
  </g>
  <line id="Baseline-M" style="fill:none;stroke:#27AAE1;opacity:1;stroke-width:0.5;" x1="263" x2="3036" y1="1126" y2="1126"/>
  <line id="Capline-M" style="fill:none;stroke:#27AAE1;opacity:1;stroke-width:0.5;" x1="263" x2="3036" y1="1055.54" y2="1055.54"/>
  <g id="H-reference" style="fill:#27AAE1;stroke:none;" transform="matrix(1 0 0 1 339 1556)">
   <path d="M0.993654 0L3.63775 0L29.3281-67.1323L30.0303-67.1323L30.0303-70.459L28.1226-70.459ZM11.6885-24.4799L46.9815-24.4799L46.2315-26.7285L12.4385-26.7285ZM55.1196 0L57.7637 0L30.6382-70.459L29.4326-70.459L29.4326-67.1323Z"/>
  </g>
  <line id="Baseline-L" style="fill:none;stroke:#27AAE1;opacity:1;stroke-width:0.5;" x1="263" x2="3036" y1="1556" y2="1556"/>
  <line id="Capline-L" style="fill:none;stroke:#27AAE1;opacity:1;stroke-width:0.5;" x1="263" x2="3036" y1="1485.54" y2="1485.54"/>
  <line id="right-margin-Black-S" style="fill:none;stroke:#00AEEF;stroke-width:0.5;opacity:1.0;" x1="3008.62" x2="3008.62" y1="600.785" y2="720.121"/>
  <line id="left-margin-Black-S" style="fill:none;stroke:#00AEEF;stroke-width:0.5;opacity:1.0;" x1="2858.18" x2="2858.18" y1="600.785" y2="720.121"/>
  <line id="right-margin-Regular-S" style="fill:none;stroke:#00AEEF;stroke-width:0.5;opacity:1.0;" x1="1518.08" x2="1518.08" y1="600.785" y2="720.121"/>
  <line id="left-margin-Regular-S" style="fill:none;stroke:#00AEEF;stroke-width:0.5;opacity:1.0;" x1="1381.61" x2="1381.61" y1="600.785" y2="720.121"/>
  <line id="right-margin-Ultralight-S" style="fill:none;stroke:#00AEEF;stroke-width:0.5;opacity:1.0;" x1="621.319" x2="621.319" y1="600.785" y2="720.121"/>
  <line id="left-margin-Ultralight-S" style="fill:none;stroke:#00AEEF;stroke-width:0.5;opacity:1.0;" x1="498.104" x2="498.104" y1="600.785" y2="720.121"/>
 </g>
 <g id="Symbols">
  <g id="Black-S" transform="matrix(1 0 0 1 2858.18 696)">
   <path class="SFSymbolsPreviewWireframe" d="M39.7461-22.168C43.457-22.168 46.4844-25.1953 46.4844-28.9062C46.4844-32.6172 43.457-35.6445 39.7461-35.6445C36.0352-35.6445 33.0078-32.6172 33.0078-28.9062C33.0078-25.1953 36.0352-22.168 39.7461-22.168ZM58.1543-22.168C61.8652-22.168 64.8926-25.1953 64.8926-28.9062C64.8926-32.6172 61.8652-35.6445 58.1543-35.6445C54.4434-35.6445 51.416-32.6172 51.416-28.9062C51.416-25.1953 54.4434-22.168 58.1543-22.168ZM76.5625-22.168C80.2734-22.168 83.3008-25.1953 83.3008-28.9062C83.3008-32.6172 80.2734-35.6445 76.5625-35.6445C72.8516-35.6445 69.8242-32.6172 69.8242-28.9062C69.8242-25.1953 72.8516-22.168 76.5625-22.168ZM101.953-28.125L133.74-59.9609L124.268-69.4824L92.4316-37.5977L88.7207-27.4902C87.9395-25.3906 90.0879-23.6816 91.8457-24.3652ZM136.523-62.6953L140.332-66.7969C142.578-69.2871 143.066-72.9004 140.771-75.3418L139.16-77.002C137.207-79.0527 133.447-78.418 131.055-76.0742L127.051-72.2168ZM106.006-21.8262L145.752-61.8652C150.586-67.1875 151.025-75.1465 146.045-80.4199L144.434-82.0801C139.502-87.207 131.152-86.377 125.977-81.3477L86.1328-41.6504L84.9609-38.5254C79.834-24.3652 91.7969-16.5039 102.881-20.6543ZM28.2227 2.92969L113.867 2.92969C125.684 2.92969 132.324-3.71094 132.324-15.5273L132.324-45.166C132.324-56.9824 125.684-63.623 113.867-63.623L28.2227-63.623C16.4062-63.623 9.76562-56.9824 9.76562-45.166L9.76562-15.5273C9.76562-3.71094 16.4062 2.92969 28.2227 2.92969ZM23.9258-16.748L23.9258-43.9453C23.9258-47.4609 25.8789-49.4629 29.3945-49.4629L112.695-49.4629C116.211-49.4629 118.164-47.4609 118.164-43.9453L118.164-16.748C118.164-13.2324 116.211-11.2305 112.695-11.2305L29.3945-11.2305C25.8789-11.2305 23.9258-13.2324 23.9258-16.748Z"/>
  </g>
  <g id="Regular-S" transform="matrix(1 0 0 1 1381.61 696)">
   <path class="SFSymbolsPreviewWireframe" d="M30.6152-21.4844C33.7891-21.4844 36.377-24.1211 36.377-27.2949C36.377-30.4688 33.7891-33.0566 30.6152-33.0566C27.4414-33.0566 24.8047-30.4688 24.8047-27.2949C24.8047-24.1211 27.4414-21.4844 30.6152-21.4844ZM47.4609-21.4844C50.6348-21.4844 53.2227-24.1211 53.2227-27.2949C53.2227-30.4688 50.6348-33.0566 47.4609-33.0566C44.2871-33.0566 41.6992-30.4688 41.6992-27.2949C41.6992-24.1211 44.2871-21.4844 47.4609-21.4844ZM64.3555-21.4844C67.5293-21.4844 70.1172-24.1211 70.1172-27.2949C70.1172-30.4688 67.5293-33.0566 64.3555-33.0566C61.1816-33.0566 58.5449-30.4688 58.5449-27.2949C58.5449-24.1211 61.1816-21.4844 64.3555-21.4844ZM85.5469-28.2227L119.824-62.4512L113.721-68.5059L79.4922-34.2773L76.4648-26.9043C76.1719-26.0742 77.002-25.0977 77.9297-25.4395ZM122.705-65.2832L125.83-68.457C127.295-69.9219 127.344-72.2656 125.879-73.6328L124.707-74.707C123.34-75.9277 121.143-75.9766 119.775-74.5605L116.602-71.3867ZM88.7207-23.1445L129.98-64.3066C133.789-68.1152 133.789-74.2188 129.883-77.9297L128.662-79.0527C125.098-82.2754 119.287-82.4707 115.576-78.6621L74.5117-37.5488L71.0938-29.1992C68.8477-23.5352 74.3164-17.9199 79.9805-20.0195ZM25.9766 0.878906L93.0664 0.878906C103.467 0.878906 109.277-4.93164 109.277-15.332L109.277-38.7207C109.277-49.1211 103.467-54.8828 93.0664-54.8828L25.9766-54.8828C15.5762-54.8828 9.76562-49.1211 9.76562-38.7207L9.76562-15.332C9.76562-4.93164 15.5762 0.878906 25.9766 0.878906ZM16.7969-15.332L16.7969-38.7207C16.7969-44.5312 20.1172-47.8516 25.9766-47.8516L93.0664-47.8516C98.9258-47.8516 102.246-44.5312 102.246-38.7207L102.246-15.332C102.246-9.47266 98.9258-6.20117 93.0664-6.20117L25.9766-6.20117C20.1172-6.20117 16.7969-9.47266 16.7969-15.332Z"/>
  </g>
  <g id="Ultralight-S" transform="matrix(1 0 0 1 498.104 696)">
   <path class="SFSymbolsPreviewWireframe" d="M27.7998-21.0757C30.0655-21.0757 31.9268-22.895 31.9268-25.2515C31.9268-27.5625 30.0655-29.3784 27.7998-29.3784C25.4434-29.3784 23.5332-27.5625 23.5332-25.2515C23.5332-22.895 25.4434-21.0757 27.7998-21.0757ZM42.5567-21.0757C44.8223-21.0757 46.6836-22.895 46.6836-25.2515C46.6836-27.5625 44.8223-29.3784 42.5567-29.3784C40.2002-29.3784 38.3389-27.5625 38.3389-25.2515C38.3389-22.895 40.2002-21.0757 42.5567-21.0757ZM57.3169-21.0757C59.5826-21.0757 61.4893-22.895 61.4893-25.2515C61.4893-27.5625 59.5826-29.3784 57.3169-29.3784C54.9605-29.3784 53.0957-27.5625 53.0957-25.2515C53.0957-22.895 54.9605-21.0757 57.3169-21.0757ZM74.6485-25.3618L109.289-59.9536L105.411-63.8741L70.7735-29.3277L66.838-22.3179C66.545-21.8057 67.148-21.2832 67.6217-21.5342ZM111.761-62.377L114.432-64.9605C115.897-66.3799 115.946-67.6792 114.617-69.001L114.399-69.167C113.213-70.3423 111.788-70.2549 110.466-68.9297L107.837-66.3462ZM78.1856-20.6016L118.537-60.7647C122.346-64.4825 122.437-69.4961 118.757-73.1617L118.536-73.3311C115.062-76.7808 109.933-76.7037 106.313-73.0767L66.0655-32.8716L62.5567-26.6109C58.6305-19.6299 64.7803-13.3335 71.8521-17.2041ZM24.8413-1.9365L84.0753-1.9365C93.7491-1.9365 99.151-7.38377 99.151-17.103L99.151-33.3169C99.151-43.0362 93.7491-48.4346 84.0753-48.4346L24.8413-48.4346C15.1675-48.4346 9.76562-43.0362 9.76562-33.3169L9.76562-17.103C9.76562-7.38377 15.1675-1.9365 24.8413-1.9365ZM11.9834-17.0576L11.9834-33.3623C11.9834-41.625 16.5752-46.2168 24.7959-46.2168L84.0753-46.2168C92.3414-46.2168 96.9331-41.625 96.9331-33.3623L96.9331-17.0576C96.9331-8.79151 92.3414-4.15773 84.0753-4.15773L24.7959-4.15773C16.5752-4.15773 11.9834-8.79151 11.9834-17.0576Z"/>
  </g>
 </g>
</svg>
